<?xml version="1.0" encoding="utf-8"?>
<!-- Generator: Adobe Illustrator 27.9.0, SVG Export Plug-In . SVG Version: 6.00 Build 0)  -->
<svg version="1.1" xmlns="http://www.w3.org/2000/svg" xmlns:xlink="http://www.w3.org/1999/xlink" x="0px" y="0px"
	 viewBox="0 0 841.89 595.28" style="enable-background:new 0 0 841.89 595.28;" xml:space="preserve">
<style type="text/css">
	.st0{fill:none;stroke:#000000;stroke-width:10;stroke-miterlimit:10;}
	.st1{fill:none;stroke:#000000;stroke-width:5;stroke-miterlimit:10;}
	.st2{font-family:'JosefinSans-Regular';}
	.st3{font-size:161.613px;}
	.st4{letter-spacing:7;}
</style>
<g id="Layer_1">
	<g>
		<g>
			<polyline class="st0" points="-2267.28,337.67 -2493.17,337.67 -2493.17,427 -2299.92,427 			"/>
			<line class="st0" x1="-2267.28" y1="370.61" x2="-2463.97" y2="370.61"/>
			<polyline class="st0" points="-2495.88,486.57 -2269.99,486.57 -2269.99,397.24 -2463.24,397.24 			"/>
			<line class="st0" x1="-2495.88" y1="453.62" x2="-2298.2" y2="453.62"/>
		</g>
		<text transform="matrix(1.0076 0 0 1 -2495.9604 531.7686)" style="font-family:'OriyaSangamMN'; font-size:24px;">STANCE PILATES</text>
	</g>
	<g>
		<g>
			<polyline class="st1" points="-1871.01,337.67 -2096.91,337.67 -2096.91,427 -1903.65,427 			"/>
			<line class="st0" x1="-1871.01" y1="370.61" x2="-2067.71" y2="370.61"/>
			<polyline class="st1" points="-2099.62,486.57 -1873.72,486.57 -1873.72,397.24 -2066.98,397.24 			"/>
			<line class="st0" x1="-2099.62" y1="453.62" x2="-1901.94" y2="453.62"/>
		</g>
		<text transform="matrix(1.0017 0 0 1 -2099.6194 527.4902)" style="font-family:'OriyaSangamMN'; font-size:24px;">STANCE PILATES</text>
	</g>
	<g>
		<g>
			<polyline class="st0" points="-2265.92,71.7 -2491.82,71.7 -2491.82,161.03 -2298.56,161.03 			"/>
			<line class="st1" x1="-2265.92" y1="104.64" x2="-2462.62" y2="104.64"/>
			<polyline class="st0" points="-2494.53,220.59 -2268.63,220.59 -2268.63,131.27 -2461.89,131.27 			"/>
			<line class="st1" x1="-2494.53" y1="187.65" x2="-2296.84" y2="187.65"/>
		</g>
		<text transform="matrix(1.0266 0 0 1 -2496.8816 260.348)" style="font-family:'OriyaSangamMN'; font-size:24px;">STANCE PILATES</text>
	</g>
	<g>
		<g>
			<polyline class="st1" points="-1873.72,71.7 -2099.62,71.7 -2099.62,161.03 -1906.36,161.03 			"/>
			<line class="st1" x1="-1873.72" y1="104.64" x2="-2070.42" y2="104.64"/>
			<polyline class="st1" points="-2102.33,220.59 -1876.43,220.59 -1876.43,131.27 -2069.69,131.27 			"/>
			<line class="st1" x1="-2102.33" y1="187.65" x2="-1904.64" y2="187.65"/>
		</g>
		<text transform="matrix(1.0017 0 0 1 -2102.3276 259.7988)" style="font-family:'OriyaSangamMN'; font-size:24px;">STANCE PILATES</text>
	</g>
</g>
<g id="Layer_2">
	<g>
		<g>
			<polyline class="st0" points="-1404.03,71.7 -1629.93,71.7 -1629.93,161.03 -1436.67,161.03 			"/>
			<line class="st1" x1="-1404.03" y1="104.64" x2="-1600.73" y2="104.64"/>
			<polyline class="st0" points="-1632.64,220.59 -1406.74,220.59 -1406.74,131.27 -1600,131.27 			"/>
			<line class="st1" x1="-1632.64" y1="187.65" x2="-1434.95" y2="187.65"/>
		</g>
		<text transform="matrix(1.0266 0 0 1 -1669.8959 271.5137)" style="font-family:'OriyaSangamMN'; font-size:32.1412px;">STANCE PILATES</text>
	</g>
	<g>
		<g>
			<polyline class="st1" points="-1011.83,71.7 -1237.73,71.7 -1237.73,161.03 -1044.47,161.03 			"/>
			<line class="st1" x1="-1011.83" y1="104.64" x2="-1208.53" y2="104.64"/>
			<polyline class="st1" points="-1240.44,220.59 -1014.54,220.59 -1014.54,131.27 -1207.8,131.27 			"/>
			<line class="st1" x1="-1240.44" y1="187.65" x2="-1042.75" y2="187.65"/>
		</g>
		<text transform="matrix(1.0266 0 0 1 -1269.6906 272.9853)" style="font-family:'OriyaSangamMN'; font-size:32.1412px;">STANCE PILATES</text>
	</g>
	<g>
		<g>
			<polyline class="st0" points="-1405.39,337.67 -1631.28,337.67 -1631.28,427 -1438.03,427 			"/>
			<line class="st0" x1="-1405.39" y1="370.61" x2="-1602.08" y2="370.61"/>
			<polyline class="st0" points="-1633.99,486.57 -1408.1,486.57 -1408.1,397.24 -1601.35,397.24 			"/>
			<line class="st0" x1="-1633.99" y1="453.62" x2="-1436.31" y2="453.62"/>
		</g>
		<text transform="matrix(1.0266 0 0 1 -1667.8937 544.6491)" style="font-family:'OriyaSangamMN'; font-size:32.1412px;">STANCE PILATES</text>
	</g>
	<g>
		<g>
			<polyline class="st1" points="-1009.12,337.67 -1235.02,337.67 -1235.02,427 -1041.76,427 			"/>
			<line class="st0" x1="-1009.12" y1="370.61" x2="-1205.82" y2="370.61"/>
			<polyline class="st1" points="-1237.73,486.57 -1011.83,486.57 -1011.83,397.24 -1205.09,397.24 			"/>
			<line class="st0" x1="-1237.73" y1="453.62" x2="-1040.05" y2="453.62"/>
		</g>
		<text transform="matrix(1.0266 0 0 1 -1267.6884 544.6498)" style="font-family:'OriyaSangamMN'; font-size:32.1412px;">STANCE PILATES</text>
	</g>
</g>
<g id="Layer_3">
	<g>
		<g>
			<polyline class="st0" points="-793.67,340.81 -794.03,510.61 -726.88,510.75 -726.58,365.49 			"/>
			<line class="st0" x1="-768.91" y1="340.87" x2="-769.22" y2="488.71"/>
			<polyline class="st0" points="-682.11,512.88 -681.76,343.08 -748.9,342.94 -749.2,488.2 			"/>
			<line class="st0" x1="-706.87" y1="512.83" x2="-706.56" y2="364.24"/>
		</g>
		<text transform="matrix(1.1218 0 0 1 -658.9469 419.8614)"><tspan x="0" y="0" style="font-family:'OriyaSangamMN'; font-size:33.3024px;">STANCE </tspan><tspan x="0" y="39.96" style="font-family:'OriyaSangamMN'; font-size:33.3024px;">PILATES</tspan></text>
	</g>
	<g>
		<g>
			<polyline class="st0" points="-793.54,54.21 -794.03,223.81 -726.96,224 -726.54,78.9 			"/>
			<line class="st1" x1="-768.81" y1="54.28" x2="-769.23" y2="201.95"/>
			<polyline class="st0" points="-682.24,226.16 -681.76,56.56 -748.82,56.37 -749.24,201.46 			"/>
			<line class="st1" x1="-706.97" y1="226.09" x2="-706.55" y2="77.67"/>
		</g>
		<text transform="matrix(1.1218 0 0 1 -654.6493 141.2638)"><tspan x="0" y="0" style="font-family:'OriyaSangamMN'; font-size:33.3024px;">STANCE </tspan><tspan x="0" y="39.96" style="font-family:'OriyaSangamMN'; font-size:33.3024px;">PILATES</tspan></text>
	</g>
	<g>
		<g>
			<polyline class="st1" points="-408.66,333.83 -408.52,503.94 -341.25,503.89 -341.37,358.36 			"/>
			<line class="st0" x1="-383.85" y1="333.81" x2="-383.73" y2="481.93"/>
			<polyline class="st1" points="-296.39,505.89 -296.53,335.78 -363.8,335.83 -363.68,481.37 			"/>
			<line class="st0" x1="-321.2" y1="505.91" x2="-321.32" y2="357.05"/>
		</g>
		<text transform="matrix(1.1218 0 0 1 -282.8057 413.8135)"><tspan x="0" y="0" style="font-family:'OriyaSangamMN'; font-size:33.3024px;">STANCE </tspan><tspan x="0" y="39.96" style="font-family:'OriyaSangamMN'; font-size:33.3024px;">PILATES</tspan></text>
	</g>
	<g>
		<g>
			<polyline class="st1" points="-409.79,56.67 -407.96,220.8 -341.72,220.06 -343.29,79.65 			"/>
			<line class="st1" x1="-385.36" y1="56.4" x2="-383.77" y2="199.31"/>
			<polyline class="st1" points="-297.53,221.54 -299.35,57.41 -365.6,58.15 -364.03,198.56 			"/>
			<line class="st1" x1="-321.95" y1="221.81" x2="-323.55" y2="78.18"/>
		</g>
		<text transform="matrix(1.1218 0 0 1 -281.6725 133.554)"><tspan x="0" y="0" style="font-family:'OriyaSangamMN'; font-size:33.3024px;">STANCE </tspan><tspan x="0" y="39.96" style="font-family:'OriyaSangamMN'; font-size:33.3024px;">PILATES</tspan></text>
	</g>
</g>
<g id="Layer_4">
	<text transform="matrix(1 0 0 1 318.4039 347.2528)" class="st2 st3 st4">SP</text>
	<text transform="matrix(1 0 0 1 176.9716 934.2104)"><tspan x="0" y="0" class="st2" style="font-size:104.8182px; letter-spacing:4;">STANCE</tspan><tspan x="0" y="125.78" class="st2" style="font-size:104.8182px; letter-spacing:4;">PILATES</tspan></text>
</g>
<g id="Layer_5">
</g>
</svg>
