<?xml version="1.0" encoding="utf-8"?>
<!-- Generator: Adobe Illustrator 27.9.0, SVG Export Plug-In . SVG Version: 6.00 Build 0)  -->
<svg version="1.1" id="Layer_1" xmlns="http://www.w3.org/2000/svg" xmlns:xlink="http://www.w3.org/1999/xlink" x="0px" y="0px"
	 viewBox="0 0 667.5 81.35" style="enable-background:new 0 0 667.5 81.35;" xml:space="preserve">
<style type="text/css">
	.st0{fill:#7E8A9B;}
</style>
<g>
	<path class="st0" d="M35.74,19.21c-1.84-0.95-3.86-1.77-6.06-2.47s-4.34-1.05-6.43-1.05c-2.89,0-5.2,0.67-6.92,2.02
		c-1.72,1.35-2.58,3.14-2.58,5.38c0,1.7,0.55,3.13,1.64,4.3s2.54,2.18,4.34,3.03c1.79,0.85,3.66,1.65,5.61,2.39
		c1.69,0.65,3.36,1.37,5.01,2.17c1.65,0.8,3.13,1.79,4.45,2.99c1.32,1.2,2.37,2.67,3.14,4.41c0.77,1.75,1.16,3.91,1.16,6.5
		c0,2.84-0.71,5.43-2.13,7.78c-1.42,2.34-3.45,4.19-6.09,5.53c-2.64,1.35-5.78,2.02-9.42,2.02c-2.39,0-4.67-0.27-6.84-0.82
		c-2.17-0.55-4.18-1.26-6.02-2.13c-1.84-0.87-3.49-1.78-4.93-2.73l3.22-5.68c1.2,0.85,2.57,1.66,4.11,2.43s3.17,1.4,4.86,1.87
		c1.69,0.47,3.34,0.71,4.93,0.71c1.69,0,3.38-0.31,5.05-0.93c1.67-0.62,3.05-1.58,4.15-2.88c1.1-1.29,1.64-3.01,1.64-5.16
		c0-1.84-0.49-3.38-1.46-4.6c-0.97-1.22-2.26-2.27-3.85-3.14c-1.6-0.87-3.29-1.66-5.08-2.36c-1.7-0.65-3.42-1.36-5.16-2.13
		c-1.75-0.77-3.36-1.72-4.86-2.84c-1.5-1.12-2.69-2.5-3.59-4.15c-0.9-1.65-1.35-3.64-1.35-5.98c0-2.84,0.68-5.32,2.06-7.44
		c1.37-2.12,3.25-3.79,5.65-5.01c2.39-1.22,5.13-1.88,8.22-1.98c3.49,0,6.57,0.42,9.23,1.27c2.67,0.85,5.02,1.87,7.07,3.07
		L35.74,19.21z"/>
	<path class="st0" d="M50.39,9.57h35.89v6.95h-14.5v47.1h-7.25v-47.1H50.39V9.57z"/>
	<path class="st0" d="M91.66,63.63l23.63-56.3h0.45l23.55,56.3h-8.3l-17.65-44.93l5.16-3.36l-19.74,48.3H91.66z M105.49,43.14h20.11
		l2.39,6.28h-24.6L105.49,43.14z"/>
	<path class="st0" d="M199.7,65.35L157.9,22.95l2.09,0.52l0.15,40.15h-7.25V7.93h0.37l41.35,42.54l-1.72-0.37l-0.15-40.52h7.18
		v55.78H199.7z"/>
	<path class="st0" d="M258.61,59.59c-0.9,0.6-2.12,1.27-3.66,2.02c-1.54,0.75-3.35,1.37-5.42,1.87c-2.07,0.5-4.33,0.75-6.77,0.75
		c-4.19-0.05-7.96-0.8-11.33-2.24c-3.36-1.45-6.22-3.41-8.56-5.91c-2.34-2.49-4.15-5.37-5.42-8.63c-1.27-3.26-1.91-6.74-1.91-10.43
		c0-4.04,0.66-7.76,1.98-11.18c1.32-3.41,3.18-6.38,5.57-8.9c2.39-2.52,5.22-4.47,8.49-5.87c3.26-1.39,6.84-2.09,10.73-2.09
		c3.24,0,6.18,0.44,8.82,1.31c2.64,0.87,4.91,1.91,6.8,3.1l-2.92,6.73c-1.5-1-3.3-1.94-5.42-2.84c-2.12-0.9-4.47-1.35-7.07-1.35
		c-2.64,0-5.13,0.52-7.48,1.57s-4.41,2.52-6.21,4.41c-1.79,1.9-3.2,4.1-4.22,6.62c-1.02,2.52-1.53,5.22-1.53,8.11
		c0,2.94,0.46,5.67,1.38,8.19c0.92,2.52,2.24,4.7,3.96,6.54c1.72,1.84,3.8,3.29,6.24,4.34c2.44,1.05,5.18,1.57,8.22,1.57
		c2.74,0,5.18-0.42,7.33-1.27c2.14-0.85,3.91-1.79,5.31-2.84L258.61,59.59z"/>
	<path class="st0" d="M274.24,9.57h35.14v6.95h-27.89v16.45h24.9v6.95h-24.9v16.75h28.93v6.95h-36.19V9.57z"/>
	<path class="st0" d="M367.92,9.57c3.94,0,7.3,0.66,10.09,1.98c2.79,1.32,4.95,3.23,6.47,5.72c1.52,2.49,2.28,5.51,2.28,9.05
		c0,2.14-0.33,4.25-0.97,6.32c-0.65,2.07-1.68,3.94-3.1,5.61s-3.28,3-5.57,4c-2.29,1-5.08,1.5-8.37,1.5h-8v19.89h-7.25V9.57H367.92z
		 M368.67,36.79c2.14,0,3.91-0.35,5.31-1.05c1.39-0.7,2.49-1.58,3.29-2.65c0.8-1.07,1.37-2.21,1.72-3.4s0.52-2.27,0.52-3.21
		c0-1.1-0.17-2.23-0.52-3.4c-0.35-1.17-0.93-2.24-1.76-3.21s-1.89-1.77-3.21-2.39c-1.32-0.62-2.95-0.93-4.9-0.93h-8.37v20.26H368.67
		z"/>
	<path class="st0" d="M401.41,9.57h7.25v54.06h-7.25V9.57z"/>
	<path class="st0" d="M427.66,9.57h7.25v47.1h27.44v6.95h-34.69V9.57z"/>
	<path class="st0" d="M472.22,63.63l23.63-56.3h0.45l23.55,56.3h-8.3L493.9,18.69l5.16-3.36l-19.74,48.3H472.22z M486.05,43.14
		h20.11l2.39,6.28h-24.6L486.05,43.14z"/>
	<path class="st0" d="M525.3,9.57h35.89v6.95h-14.5v47.1h-7.25v-47.1H525.3V9.57z"/>
	<path class="st0" d="M576.14,9.57h35.14v6.95h-27.89v16.45h24.9v6.95h-24.9v16.75h28.93v6.95h-36.19V9.57z"/>
	<path class="st0" d="M656.29,19.21c-1.84-0.95-3.86-1.77-6.06-2.47s-4.34-1.05-6.43-1.05c-2.89,0-5.2,0.67-6.92,2.02
		c-1.72,1.35-2.58,3.14-2.58,5.38c0,1.7,0.55,3.13,1.64,4.3s2.54,2.18,4.34,3.03c1.79,0.85,3.66,1.65,5.61,2.39
		c1.69,0.65,3.36,1.37,5.01,2.17c1.65,0.8,3.13,1.79,4.45,2.99c1.32,1.2,2.37,2.67,3.14,4.41c0.77,1.75,1.16,3.91,1.16,6.5
		c0,2.84-0.71,5.43-2.13,7.78c-1.42,2.34-3.45,4.19-6.09,5.53c-2.64,1.35-5.78,2.02-9.42,2.02c-2.39,0-4.67-0.27-6.84-0.82
		c-2.17-0.55-4.18-1.26-6.02-2.13c-1.84-0.87-3.49-1.78-4.93-2.73l3.22-5.68c1.2,0.85,2.57,1.66,4.11,2.43s3.17,1.4,4.86,1.87
		c1.69,0.47,3.34,0.71,4.93,0.71c1.69,0,3.38-0.31,5.05-0.93c1.67-0.62,3.05-1.58,4.15-2.88c1.1-1.29,1.64-3.01,1.64-5.16
		c0-1.84-0.49-3.38-1.46-4.6c-0.97-1.22-2.26-2.27-3.85-3.14c-1.6-0.87-3.29-1.66-5.08-2.36c-1.7-0.65-3.42-1.36-5.16-2.13
		c-1.75-0.77-3.36-1.72-4.86-2.84c-1.5-1.12-2.69-2.5-3.59-4.15c-0.9-1.65-1.35-3.64-1.35-5.98c0-2.84,0.68-5.32,2.06-7.44
		c1.37-2.12,3.25-3.79,5.65-5.01c2.39-1.22,5.13-1.88,8.22-1.98c3.49,0,6.57,0.42,9.23,1.27c2.67,0.85,5.02,1.87,7.07,3.07
		L656.29,19.21z"/>
</g>
</svg>
